<svg width="512" height="512" viewBox="0 0 512 512" fill="none" xmlns="http://www.w3.org/2000/svg">
<path d="M497 0H15C6.716 0 0 6.716 0 15V497C0 505.284 6.716 512 15 512H497C505.284 512 512 505.284 512 497V15C512 6.716 505.284 0 497 0ZM482 482H30V30H482V482Z" fill="#5E6066"/>
<path d="M122.01 100.79C119.21 98 115.35 96.4 111.4 96.4C107.45 96.4 103.59 98 100.79 100.79C98 103.58 96.4 107.45 96.4 111.4C96.4 115.35 98 119.21 100.79 122.01C103.59 124.8 107.45 126.4 111.4 126.4C115.35 126.4 119.21 124.8 122.01 122.01C124.8 119.21 126.4 115.35 126.4 111.4C126.4 107.45 124.8 103.59 122.01 100.79Z" fill="#5E6066"/>
<path d="M122.01 197.19C119.21 194.4 115.35 192.8 111.4 192.8C107.45 192.8 103.59 194.4 100.79 197.19C98 199.98 96.4 203.85 96.4 207.8C96.4 211.75 98 215.61 100.79 218.41C103.59 221.2 107.45 222.8 111.4 222.8C115.35 222.8 119.21 221.2 122.01 218.41C124.8 215.61 126.4 211.75 126.4 207.8C126.4 203.85 124.8 199.98 122.01 197.19Z" fill="#5E6066"/>
<path d="M122.01 293.59C119.22 290.8 115.35 289.2 111.4 289.2C107.45 289.2 103.58 290.8 100.79 293.59C98 296.39 96.4 300.25 96.4 304.2C96.4 308.15 98 312.01 100.79 314.81C103.58 317.6 107.45 319.2 111.4 319.2C115.35 319.2 119.22 317.6 122.01 314.81C124.8 312.01 126.4 308.15 126.4 304.2C126.4 300.25 124.8 296.39 122.01 293.59Z" fill="#5E6066"/>
<path d="M122.01 389.99C119.21 387.2 115.35 385.6 111.4 385.6C107.45 385.6 103.58 387.2 100.79 389.99C98 392.78 96.4 396.65 96.4 400.6C96.4 404.55 98 408.42 100.79 411.21C103.58 414 107.45 415.6 111.4 415.6C115.35 415.6 119.21 414 122.01 411.21C124.8 408.41 126.4 404.55 126.4 400.6C126.4 396.65 124.8 392.79 122.01 389.99Z" fill="#5E6066"/>
<path d="M400.6 96.4H207.8C199.516 96.4 192.8 103.116 192.8 111.4C192.8 119.684 199.516 126.4 207.8 126.4H400.6C408.884 126.4 415.6 119.684 415.6 111.4C415.6 103.116 408.884 96.4 400.6 96.4Z" fill="#5E6066"/>
<path d="M400.6 192.8H207.8C199.516 192.8 192.8 199.516 192.8 207.8C192.8 216.084 199.516 222.8 207.8 222.8H400.6C408.884 222.8 415.6 216.084 415.6 207.8C415.6 199.516 408.884 192.8 400.6 192.8Z" fill="#5E6066"/>
<path d="M400.6 289.2H207.8C199.516 289.2 192.8 295.916 192.8 304.2C192.8 312.484 199.516 319.2 207.8 319.2H400.6C408.884 319.2 415.6 312.484 415.6 304.2C415.6 295.916 408.884 289.2 400.6 289.2Z" fill="#5E6066"/>
<path d="M400.6 385.601H207.8C199.516 385.601 192.8 392.317 192.8 400.601C192.8 408.885 199.516 415.601 207.8 415.601H400.6C408.884 415.601 415.6 408.885 415.6 400.601C415.6 392.317 408.884 385.601 400.6 385.601Z" fill="#5E6066"/>
</svg>
